<?xml version="1.0" encoding="UTF-8" standalone="no"?>
<!-- Created with Inkscape (http://www.inkscape.org/) -->

<svg
   width="237.68082mm"
   height="130.22955mm"
   viewBox="0 0 237.68082 130.22955"
   version="1.1"
   id="svg1"
   xml:space="preserve"
   sodipodi:docname="IEEE EPS SB Logo - Pure objects.svg"
   inkscape:version="1.3.2 (091e20e, 2023-11-25, custom)"
   xmlns:inkscape="http://www.inkscape.org/namespaces/inkscape"
   xmlns:sodipodi="http://sodipodi.sourceforge.net/DTD/sodipodi-0.dtd"
   xmlns="http://www.w3.org/2000/svg"
   xmlns:svg="http://www.w3.org/2000/svg"><sodipodi:namedview
     id="namedview1"
     pagecolor="#505050"
     bordercolor="#eeeeee"
     borderopacity="1"
     inkscape:showpageshadow="0"
     inkscape:pageopacity="0"
     inkscape:pagecheckerboard="0"
     inkscape:deskcolor="#505050"
     inkscape:document-units="mm"
     inkscape:zoom="2.3204961"
     inkscape:cx="266.96878"
     inkscape:cy="368.24023"
     inkscape:window-width="1920"
     inkscape:window-height="1009"
     inkscape:window-x="-8"
     inkscape:window-y="-8"
     inkscape:window-maximized="1"
     inkscape:current-layer="svg1" /><defs
     id="defs1" /><path
     d="m 104.96349,101.00998 v 2.09184 q -2.13015,-0.9578 -3.39445,-0.9578 -0.72026,0 -1.14936,0.24519 -0.421428,0.23754 -0.421428,0.63598 0,0.3065 0.306498,0.58235 0.30649,0.27584 1.49417,0.7126 1.18767,0.43676 1.90027,0.81221 0.71261,0.37546 1.22599,1.05742 0.52104,0.68195 0.52104,1.72404 0,1.4865 -1.13404,2.36768 -1.12637,0.88118 -2.97301,0.88118 -1.992223,0 -3.861849,-1.03443 v -2.30638 q 1.072737,0.72026 1.900276,1.04975 0.827543,0.32948 1.754693,0.32948 1.57079,0 1.57079,-0.98845 0,-0.33715 -0.31416,-0.63598 -0.31416,-0.29883 -1.51715,-0.72793 -1.195339,-0.42909 -1.90028,-0.79689 -0.697279,-0.36779 -1.21066,-1.04975 -0.505718,-0.68195 -0.505718,-1.74702 0,-1.37924 1.111048,-2.2221 1.111048,-0.85053 2.97301,-0.85053 1.71638,0 3.62432,0.82754 z m 11.87672,-0.68961 v 1.96157 h -3.87717 v 8.7428 h -2.66652 v -8.7428 h -3.87718 v -1.96157 z m 9.56268,0 h 2.66652 v 6.07628 q 0,2.3447 -1.3869,3.55536 -1.38689,1.21066 -3.96146,1.21066 -2.54392,0 -3.9538,-1.22599 -1.40222,-1.22598 -1.40222,-3.5247 v -6.09161 h 2.67418 v 6.15291 q 0,1.11871 0.72793,1.793 0.73559,0.67429 1.92326,0.67429 1.23365,0 1.96924,-0.68962 0.74325,-0.68961 0.74325,-1.96157 z m 4.96524,0 h 4.72004 q 2.73548,0 4.32159,1.50183 1.59378,1.49417 1.59378,3.86951 0,2.49028 -1.61676,3.91549 -1.60911,1.41754 -4.59745,1.41754 h -4.4212 z m 2.66651,1.96157 v 6.78123 h 1.73937 q 1.69339,0 2.58989,-0.92715 0.8965,-0.93482 0.8965,-2.45963 0,-1.57846 -0.91182,-2.48262 -0.90417,-0.91183 -2.60522,-0.91183 z m 17.8534,6.78123 v 1.96157 h -7.89227 v -10.70437 h 7.785 v 1.96157 h -5.11849 v 2.24508 h 4.88095 v 1.96158 h -4.88095 v 2.57457 z m 12.8805,-8.7428 v 10.70437 h -2.24509 l -5.91537,-6.85785 v 6.85785 h -2.66652 v -10.70437 h 2.44431 l 5.71615,6.54369 v -6.54369 z m 12.06829,0 v 1.96157 h -3.87718 v 8.7428 h -2.66652 v -8.7428 h -3.87717 v -1.96157 z m 5.98433,0 h 4.62809 q 1.65508,0 2.59755,0.79689 0.95014,0.79689 0.95014,1.88495 0,1.39455 -1.46352,2.13781 1.10339,0.29117 1.68573,1.02676 0.59001,0.73559 0.59001,1.71638 0,1.39455 -0.9578,2.26807 -0.9578,0.87351 -2.81977,0.87351 h -5.21043 z m 2.66651,1.96157 v 2.29106 h 1.39456 q 0.64364,0 1.00378,-0.32948 0.36013,-0.32949 0.36013,-0.82754 0,-0.4904 -0.36013,-0.81222 -0.36014,-0.32182 -1.00378,-0.32182 z m 0,4.25263 v 2.5286 h 1.50184 q 1.06507,0 1.53248,-0.29117 0.4674,-0.29884 0.4674,-1.02677 0,-0.55935 -0.44442,-0.88117 -0.44442,-0.32949 -1.18767,-0.32949 z m 8.29073,-6.2142 h 4.78134 q 1.55546,0 2.52859,0.90416 0.97312,0.8965 0.97312,2.17612 0,1.77002 -1.83897,2.62054 0.81221,0.36014 1.53248,1.96924 0.72793,1.60911 1.40222,3.03431 h -2.9347 q -0.26053,-0.5287 -0.91183,-2.01521 -0.64364,-1.48651 -1.11105,-1.90794 -0.45974,-0.42143 -0.98845,-0.42143 h -0.76624 v 4.34458 h -2.66651 z m 2.66651,1.96157 v 2.43664 h 1.40988 q 0.6743,0 1.06508,-0.31415 0.39844,-0.32182 0.39844,-0.91183 0,-1.21066 -1.52482,-1.21066 z m 14.21376,-1.96157 4.75069,10.70437 h -2.86574 l -0.88118,-2.11482 h -4.789 l -0.79689,2.11482 h -2.82743 l 4.31393,-10.70437 z m 0.21454,6.71992 -1.72404,-4.16068 -1.57079,4.16068 z m 16.61975,-6.71992 v 10.70437 h -2.24508 l -5.91537,-6.85785 v 6.85785 h -2.66652 v -10.70437 h 2.44431 l 5.71615,6.54369 v -6.54369 z m 12.38245,7.44019 v 2.33703 q -2.00755,1.06508 -4.20666,1.06508 -2.85041,0 -4.5438,-1.5708 -1.68573,-1.57845 -1.68573,-3.88484 0,-2.30638 1.77768,-3.91548 1.78534,-1.60911 4.65874,-1.60911 2.29106,0 3.87717,0.94248 v 2.38301 q -1.94625,-1.09573 -3.68561,-1.09573 -1.70872,0 -2.79678,0.91949 -1.0804,0.91183 -1.0804,2.32937 0,1.42521 1.06508,2.35236 1.07273,0.92715 2.74314,0.92715 0.82754,0 1.59378,-0.21455 0.76624,-0.22221 2.28339,-0.96546 z m 12.80388,-7.44019 v 10.70437 h -2.66652 v -4.32926 h -5.33303 v 4.32926 h -2.66651 v -10.70437 h 2.66651 v 4.2986 h 5.33303 v -4.2986 z"
     id="text23"
     style="font-weight:bold;font-size:15.6926px;font-family:'Gill Sans MT';-inkscape-font-specification:'Gill Sans MT, Bold';fill:#0c6cad;stroke-width:0.245196"
     transform="scale(0.92672625,1.0790673)"
     aria-label="STUDENT BRANCH" /><g
     id="g31"
     transform="translate(-33.19643,-454.05523)"><g
       id="g22"><rect
         style="opacity:1;fill:#0c6cad;fill-opacity:1;stroke-width:0.256489"
         id="rect13"
         width="7.8382368"
         height="27.687223"
         x="80.189903"
         y="544.99402" /><path
         id="rect13-6"
         style="opacity:1;fill:#0c6cad;fill-opacity:1;stroke-width:0.507335"
         d="m 90.351591,550.37674 v 3.96565 5.87716 8.49612 c 0,2.19705 1.769125,3.96565 3.966166,3.96565 h 8.408793 c 0.29603,0 0.58319,-0.0341 0.86041,-0.0951 v 1.05937 c 0,1.19115 -0.95909,2.15025 -2.15026,2.15025 H 88.73877 v 1.81798 4.59507 h 4.595068 4.204911 9.410281 c 2.54554,0 4.59507,-2.0495 4.59507,-4.59507 v -27.2371 h -7.95714 v 17.96531 h -3.4401 c -1.032343,0 -1.863453,-0.83111 -1.863453,-1.86345 v -16.10186 h -3.96565 z" /><path
         id="rect15"
         style="opacity:1;fill:#0c6cad;fill-opacity:1;stroke-width:0.259666"
         d="m 33.196423,545.14709 v 27.88977 h 8.0238 v -13.73353 h 8.811865 c 2.451945,0 4.42557,-1.97414 4.42557,-4.42609 v -5.30407 c 0,-2.45193 -1.973625,-4.42608 -4.42557,-4.42608 h -8.811865 -2.832385 z m 8.0238,4.49223 h 3.095418 c 1.19323,0 2.153874,0.96064 2.153874,2.15387 v 0.97979 c 0,1.19323 -0.960644,2.15387 -2.153874,2.15387 h -3.095418 z" /><g
         id="g21"><path
           id="rect14"
           style="opacity:1;fill:#0c6cad;fill-opacity:1;stroke-width:0.266695"
           d="m 61.286698,550.09562 c -2.882441,0 -5.202783,2.32034 -5.202783,5.20278 v 12.36566 c 0,2.88244 2.320342,5.20278 5.202783,5.20278 h 11.014315 c 2.882442,0 5.202783,-2.32034 5.202783,-5.20278 V 555.2984 c 0,-2.88244 -2.320341,-5.20278 -5.202783,-5.20278 z m 5.507158,2.97295 a 8.4125919,8.4125919 0 0 1 8.412923,8.41292 8.4125919,8.4125919 0 0 1 -8.412923,8.41241 8.4125919,8.4125919 0 0 1 -8.412407,-8.41241 8.4125919,8.4125919 0 0 1 8.412407,-8.41292 z" /><circle
           style="opacity:1;fill:#ffffff;fill-opacity:1;stroke:none;stroke-width:0.264583;stroke-opacity:1"
           id="path20"
           cx="66.793854"
           cy="561.4812"
           r="8.0072842" /><path
           id="path17"
           style="opacity:1;fill:#ff6600;stroke-width:0.264583"
           d="m 66.793856,553.06857 a 8.4125919,8.4125919 0 0 0 -8.412407,8.41292 8.4125919,8.4125919 0 0 0 8.412407,8.41241 8.4125919,8.4125919 0 0 0 8.412923,-8.41241 8.4125919,8.4125919 0 0 0 -8.412923,-8.41292 z m -3.747575,2.33732 h 7.49515 l 3.746541,6.07457 -3.746541,6.07611 h -7.49515 l -3.746025,-6.07611 z m 0.152445,0.24702 -3.593579,5.82755 3.593579,5.8291 h 7.188192 l 3.596163,-5.8291 -3.596163,-5.82755 z m 3.594096,0.46043 c 2.963667,0 5.369182,2.40345 5.369182,5.36712 0,2.96365 -2.405515,5.36918 -5.369182,5.36918 -2.963668,0 -5.367114,-2.40553 -5.367114,-5.36918 0,-2.96367 2.403446,-5.36712 5.367114,-5.36712 z m 0,0.26355 c -2.820676,0 -5.103564,2.28289 -5.103564,5.10357 0,2.82066 2.282888,5.10563 5.103564,5.10563 2.820676,0 5.105632,-2.28497 5.105632,-5.10563 0,-2.82068 -2.284956,-5.10357 -5.105632,-5.10357 z" /></g></g><path
       d="m 88.060487,561.64004 0.712545,-0.0693 q 0.06433,0.35875 0.259781,0.52699 0.197929,0.16824 0.531934,0.16824 0.353798,0 0.531934,-0.14845 0.18061,-0.15092 0.18061,-0.35132 0,-0.12865 -0.0767,-0.21772 -0.07422,-0.0915 -0.262256,-0.15835 -0.128654,-0.0445 -0.586364,-0.15834 -0.588839,-0.14597 -0.826354,-0.35875 -0.334005,-0.29936 -0.334005,-0.72986 0,-0.2771 0.155869,-0.51709 0.158344,-0.24246 0.452763,-0.36864 0.296893,-0.12618 0.715018,-0.12618 0.682855,0 1.026756,0.29937 0.346376,0.29937 0.363694,0.79914 l -0.732336,0.0322 q -0.04701,-0.27958 -0.202878,-0.40081 -0.153395,-0.1237 -0.462658,-0.1237 -0.319161,0 -0.499771,0.13113 -0.116283,0.0841 -0.116283,0.22514 0,0.12865 0.108861,0.2202 0.13855,0.11628 0.672958,0.24246 0.534408,0.12618 0.789242,0.26225 0.257307,0.13361 0.400806,0.36865 0.145972,0.23256 0.145972,0.57646 0,0.31174 -0.173188,0.5839 -0.173187,0.27215 -0.489874,0.40575 -0.316686,0.13113 -0.789241,0.13113 -0.687803,0 -1.056446,-0.31669 -0.368642,-0.31916 -0.440392,-0.92779 z m 3.416748,-0.61111 q 0,-0.5542 0.165766,-0.93026 0.123705,-0.2771 0.336479,-0.4973 0.215247,-0.22019 0.470081,-0.32658 0.338953,-0.1435 0.781819,-0.1435 0.801612,0 1.28159,0.4973 0.482451,0.49729 0.482451,1.38303 0,0.8783 -0.477503,1.3756 -0.477504,0.49482 -1.276641,0.49482 -0.809035,0 -1.286538,-0.49234 -0.477504,-0.49483 -0.477504,-1.36077 z m 0.754604,-0.0247 q 0,0.61606 0.284523,0.93522 0.284523,0.31668 0.72244,0.31668 0.437918,0 0.717493,-0.31421 0.282048,-0.31669 0.282048,-0.94758 0,-0.62348 -0.274626,-0.93027 -0.272152,-0.30679 -0.724915,-0.30679 -0.452762,0 -0.729862,0.31174 -0.277101,0.30926 -0.277101,0.93521 z m 3.330154,-1.81105 h 0.732337 v 1.96445 q 0,0.4676 0.02721,0.60615 0.04701,0.22267 0.22267,0.35875 0.178136,0.1336 0.484926,0.1336 0.311738,0 0.470081,-0.12618 0.158343,-0.12865 0.190507,-0.31421 0.03216,-0.18556 0.03216,-0.61605 v -2.00651 h 0.732337 v 1.90507 q 0,0.65316 -0.05938,0.92284 -0.05938,0.26968 -0.220196,0.45524 -0.158343,0.18556 -0.425547,0.29689 -0.267204,0.10886 -0.697699,0.10886 -0.519564,0 -0.789242,-0.11875 -0.267204,-0.12124 -0.423073,-0.31174 -0.155869,-0.19298 -0.205351,-0.40328 -0.07175,-0.31174 -0.07175,-0.92037 z m 3.478601,2.4469 0.712544,-0.0693 q 0.06433,0.35875 0.259782,0.52699 0.19793,0.16824 0.53193,0.16824 0.3538,0 0.53194,-0.14845 0.18061,-0.15092 0.18061,-0.35132 0,-0.12865 -0.0767,-0.21772 -0.0742,-0.0915 -0.26226,-0.15835 -0.12865,-0.0445 -0.58636,-0.15834 -0.588839,-0.14597 -0.826353,-0.35875 -0.334005,-0.29936 -0.334005,-0.72986 0,-0.2771 0.155869,-0.51709 0.158343,-0.24246 0.452762,-0.36864 0.296897,-0.12618 0.715017,-0.12618 0.68286,0 1.02676,0.29937 0.34637,0.29937 0.36369,0.79914 l -0.73234,0.0322 q -0.047,-0.27958 -0.20287,-0.40081 -0.1534,-0.1237 -0.46266,-0.1237 -0.31916,0 -0.499772,0.13113 -0.116283,0.0841 -0.116283,0.22514 0,0.12865 0.108861,0.2202 0.138554,0.11628 0.672954,0.24246 0.53441,0.12618 0.78925,0.26225 0.2573,0.13361 0.4008,0.36865 0.14597,0.23256 0.14597,0.57646 0,0.31174 -0.17318,0.5839 -0.17319,0.27215 -0.48988,0.40575 -0.31668,0.13113 -0.78924,0.13113 -0.687802,0 -1.056444,-0.31669 -0.368643,-0.31916 -0.440392,-0.92779 z m 3.379636,0 0.71254,-0.0693 q 0.0643,0.35875 0.25979,0.52699 0.19792,0.16824 0.53193,0.16824 0.3538,0 0.53193,-0.14845 0.18061,-0.15092 0.18061,-0.35132 0,-0.12865 -0.0767,-0.21772 -0.0742,-0.0915 -0.26226,-0.15835 -0.12865,-0.0445 -0.58636,-0.15834 -0.58884,-0.14597 -0.82636,-0.35875 -0.334,-0.29936 -0.334,-0.72986 0,-0.2771 0.15587,-0.51709 0.15834,-0.24246 0.45276,-0.36864 0.29689,-0.12618 0.71502,-0.12618 0.68285,0 1.02675,0.29937 0.34638,0.29937 0.3637,0.79914 l -0.73234,0.0322 q -0.047,-0.27958 -0.20288,-0.40081 -0.15339,-0.1237 -0.46266,-0.1237 -0.31916,0 -0.49977,0.13113 -0.11628,0.0841 -0.11628,0.22514 0,0.12865 0.10886,0.2202 0.13855,0.11628 0.67296,0.24246 0.53441,0.12618 0.78924,0.26225 0.25731,0.13361 0.40081,0.36865 0.14597,0.23256 0.14597,0.57646 0,0.31174 -0.17319,0.5839 -0.17319,0.27215 -0.48987,0.40575 -0.31669,0.13113 -0.78924,0.13113 -0.68781,0 -1.05645,-0.31669 -0.36864,-0.31916 -0.44039,-0.92779 z m 3.56519,1.18015 v -3.62705 h 2.68936 v 0.61358 h -1.95702 v 0.80409 h 1.82095 v 0.6111 h -1.82095 v 0.98717 h 2.0263 v 0.61111 z"
       id="text22"
       style="font-weight:bold;font-size:5.06698px;font-family:Arial;-inkscape-font-specification:'Arial, Bold';fill:#0c6cad;stroke-width:0.271445"
       transform="scale(1.0259356,0.97472004)"
       aria-label="SOUSSE" /><g
       id="g30"><path
         id="rect23"
         style="fill:#0c6cad;stroke-width:0.280975"
         d="m 58.243473,575.93901 v 1.67069 2.77503 1.67018 h 1.51412 0.499194 v -4.89117 h 1.636076 v 4.89117 h 0.499194 1.513603 v -1.67018 -2.1177 -0.65733 c 0,-0.9254 -0.674959,-1.67069 -1.513603,-1.67069 h -2.13527 -0.499194 z" /><path
         id="rect23-6"
         style="fill:#0c6cad;stroke-width:0.280975"
         d="m 69.733728,575.93901 c -0.838644,0 -1.513603,0.74529 -1.513603,1.67069 v 2.77503 c 0,0.92541 0.674959,1.67018 1.513603,1.67018 h 2.13527 v 2.22984 h 2.012797 v -3.90002 -2.77503 -1.67069 h -1.513602 -0.499195 z m 0.95498,1.2485 h 0.724504 c 0.255533,0 0.460954,0.20594 0.460954,0.46147 v 2.69647 c 0,0.25554 -0.205421,0.46148 -0.460954,0.46148 h -0.724504 c -0.255532,0 -0.460953,-0.20594 -0.460953,-0.46148 v -2.69647 c 0,-0.25553 0.205421,-0.46147 0.460953,-0.46147 z" /><path
         id="rect23-4"
         style="fill:#0c6cad;stroke-width:0.280975"
         d="m 51.418567,573.66111 v 3.94859 2.77503 1.67018 h 2.013314 v -4.76198 h 1.399397 v 4.76198 h 0.735356 1.51412 v -1.67018 -2.56212 -0.21291 c 0,-0.9254 -0.675476,-1.67069 -1.51412,-1.67069 h -2.134753 v -2.2779 z" /><path
         id="rect23-1"
         style="fill:#0c6cad;stroke-width:0.280975"
         d="m 47.199186,575.93901 c -0.838643,0 -1.514119,0.7453 -1.514119,1.67069 v 2.77503 c 0,0.92541 0.675476,1.67018 1.514119,1.67018 h 2.633948 0.388607 v -0.0574 -1.19062 h -1.705839 -0.361735 c -0.255533,0 -0.461471,-0.20594 -0.461471,-0.46148 v -2.69647 c 0,-0.25553 0.205938,-0.46147 0.461471,-0.46147 h 0.361735 0.362251 0.110588 1.233 v -1.19114 -0.0574 h -0.388607 -0.844393 z" /><path
         id="rect23-46"
         style="fill:#0c6cad;stroke-width:0.280975"
         d="m 40.4797,575.93901 c -0.838641,0 -1.513603,0.74532 -1.513603,1.67069 v 2.77503 c 0,0.92541 0.674962,1.67018 1.513603,1.67018 h 1.297078 1.297079 1.297078 v -1.24798 h -1.297078 -0.676445 c -0.04122,0 -0.08088,-0.006 -0.118856,-0.016 -0.03814,0.0101 -0.07796,0.016 -0.119372,0.016 H 41.776778 41.43468 c -0.255533,0 -0.460954,-0.20594 -0.460954,-0.46148 v -0.63665 h 1.423686 0.223242 2.007113 v -2.0991 c 0,-0.92537 -0.674962,-1.67069 -1.513603,-1.67069 z m 0.95498,1.2485 h 0.724504 c 0.255532,0 0.46147,0.20594 0.46147,0.46147 v 0.8263 h -1.646928 v -0.8263 c 0,-0.25553 0.205421,-0.46147 0.460954,-0.46147 z" /><path
         id="rect23-46-6"
         style="fill:#0c6cad;stroke-width:0.280975"
         d="m 83.186459,575.99791 c -0.838641,0 -1.513603,0.74532 -1.513603,1.67069 v 2.77503 c 0,0.92541 0.674962,1.67018 1.513603,1.67018 h 1.297078 1.297079 1.297078 v -1.24798 h -1.297078 -0.676445 c -0.04122,0 -0.08088,-0.006 -0.118856,-0.016 -0.03814,0.0101 -0.07796,0.016 -0.119372,0.016 h -0.382406 -0.342098 c -0.255533,0 -0.460954,-0.20594 -0.460954,-0.46148 v -0.63665 h 1.423686 0.223242 2.007113 v -2.0991 c 0,-0.92537 -0.674962,-1.67069 -1.513603,-1.67069 z m 0.95498,1.2485 h 0.724504 c 0.255532,0 0.46147,0.20594 0.46147,0.46147 v 0.8263 h -1.646928 v -0.8263 c 0,-0.25553 0.205421,-0.46147 0.460954,-0.46147 z" /><path
         id="rect23-8"
         style="fill:#0c6cad;stroke-width:0.280975"
         d="m 33.974154,574.60162 v 1.33739 h -0.777731 v 1.20664 h 0.777731 v 0.46405 2.36679 0.40824 c 0,0.92541 0.674961,1.67018 1.513602,1.67018 h 2.580205 v -1.2423 h -0.752409 -0.185519 -0.473356 c -0.243323,0 -0.439249,-0.19593 -0.439249,-0.43925 v -0.73225 -1.83555 -0.65991 h 1.600419 v -1.20664 h -1.600419 v -1.33739 z" /><rect
         style="fill:#0c6cad;fill-opacity:1;stroke:none;stroke-width:0.225842;stroke-opacity:1"
         id="rect29-6-2-0"
         width="2.0130081"
         height="6.1158161"
         x="65.245865"
         y="575.93921" /><rect
         style="fill:#0c6cad;fill-opacity:1;stroke:none;stroke-width:0.120403;stroke-opacity:1"
         id="rect29-6-2-0-3"
         width="2.0130081"
         height="1.7382703"
         x="65.245865"
         y="573.66101" /><path
         id="rect23-3"
         style="fill:#0c6cad;stroke-width:0.280975"
         d="m 80.608419,582.05504 v -1.67069 -2.77503 -1.67018 h -1.51412 -0.499194 v 4.89117 h -1.636076 v -4.89117 h -0.499194 -1.513603 v 1.67018 2.1177 0.65733 c 0,0.9254 0.674959,1.67069 1.513603,1.67069 h 2.13527 0.499194 z" /></g></g><rect
     style="fill:#0c6cad;fill-opacity:1;stroke:none;stroke-width:0.352206;stroke-opacity:1"
     id="rect30"
     width="148.8446"
     height="2.6756756"
     x="87.724419"
     y="100.19191"
     ry="0.46125084" /><path
     id="rect30-1-8"
     style="fill:#0c6cad;fill-opacity:1;stroke:none;stroke-width:0.734032;stroke-opacity:1"
     d="M 34.21496,2.6e-4 V 15.24377 31.55544 46.79947 63.11114 78.35517 H 56.29165 94.13172 V 63.11114 H 56.29165 V 46.79947 H 90.48284 V 31.55544 H 56.29165 V 15.24377 H 94.13172 V 2.6e-4 H 56.29165 Z" /><path
     id="rect30-1-8-1"
     style="fill:#0c6cad;fill-opacity:1;stroke:none;stroke-width:0.734032;stroke-opacity:1"
     d="m 106.18062,2.6e-4 v 15.24351 16.31167 15.24403 16.31167 15.24403 h 22.07669 37.84008 V 63.11114 H 128.25731 V 46.79947 h 34.1912 V 31.55544 h -34.1912 V 15.24377 h 37.84008 V 2.6e-4 h -37.84008 z" /><path
     id="rect30-1-8-1-9"
     style="fill:#0c6cad;fill-opacity:1;stroke:none;stroke-width:0.731687;stroke-opacity:1"
     d="m 178.14629,2.6e-4 v 15.24351 16.31167 15.24403 16.31167 15.24403 h 21.93585 37.59868 V 63.11114 H 200.08214 V 46.79947 h 33.97308 V 31.55544 H 200.08214 V 15.24377 h 37.59868 V 2.6e-4 h -37.59868 z" /><rect
     style="fill:#0c6cad;fill-opacity:1;stroke:none;stroke-width:0.734032;stroke-opacity:1"
     id="rect30-1-8-8"
     width="22.076752"
     height="78.355209"
     x="0.78560799"
     y="-1.6240234e-05"
     ry="0" /></svg>
